# xmcd
#
# Track frame offsets:
#	150
#	15462
#	26987
#	37687
#	49007
#	61767
#	72227
#	85010
#	95422
#	110410
#	124410
#	133782
#	145052
#	157120
#	171145
#	182390
#	195747
#	211787
#	222287
#	235050
#	251307
#	260150
#	276957
#	296945
#	309522
#
# Disc length: 4445 seconds
#
# Revision: 4
# Processed by: cddbd v1.5.2PL0 Copyright (c) Steve Scherf et al.
# Submitted via: EZCDAudioConverter 2.1.7.1
#
DISCID=6a115b19
DTITLE=V/A - Mod Jazz
DYEAR=1900
DGENRE=
TTITLE0=Shirley Scott - Soul Shoutin'
TTITLE1=Freddy McCoy - Collard Greens
TTITLE2=Cannonball Adderley Sextet - Tengo Tango
TTITLE3=Mark Murphy - Why Don't You Do Right?
TTITLE4=Jimmy Witherspoon - Money's Gettin' Cheaper
TTITLE5=The Nomos - Step Out And Git It
TTITLE6=Brother Jack McDuff with The Big Band of Benny Golson - (Theme From) T
TTITLE6=he Carpetbaggers
TTITLE7=Johnny 'Hammond' Smith - (Theme From) N.Y.P.D. (The ABC TV Series)
TTITLE8=Billy Hawks - Whip It On Me
TTITLE9=Cal Tjader - Evil Ways
TTITLE10=Mongo Santamaria - Yeh, Yeh!
TTITLE11=Mongo Santamaria - Watermelon Man
TTITLE12=Mose Allison - The Seventh Son
TTITLE13=Otis Spann - I'm Ready
TTITLE14=Willis Jackson - Pool Shark
TTITLE15=Sonny Stitt - Soul Shack
TTITLE16=Eddie Jefferson - Filthy McNasty
TTITLE17=Jimmy Witherspoon - Love Me Right
TTITLE18=Pat Bowie - I've Got Your Number
TTITLE19=Charles Earland - Black Talk
TTITLE20=Merced Blue Notes - Mama Rufus
TTITLE21=Rusty Bryant - Soul Liberation
TTITLE22=Boogaloo 'Joe' Jones - Games
TTITLE23=Kenny Burrell - Kenny's Theme
TTITLE24=Brother Jack McDuff with The Big Band of Benny Golson - (Theme From) 
TTITLE24=The Pink Panther
EXTD=
EXTT0=
EXTT1=
EXTT2=
EXTT3=
EXTT4=
EXTT5=
EXTT6=
EXTT7=
EXTT8=
EXTT9=
EXTT10=
EXTT11=
EXTT12=
EXTT13=
EXTT14=
EXTT15=
EXTT16=
EXTT17=
EXTT18=
EXTT19=
EXTT20=
EXTT21=
EXTT22=
EXTT23=
EXTT24=
PLAYORDER=
